# xmcd
#
# Track frame offsets: 
#        150
#        14204
#        32587
#        51619
#        65767
#        80862
#        98407
#        113255
#        129709
#        145189
#        157768
#        173898
#
# Disc length: 2527 seconds
#
# Revision: 0
# Processed by: cddbd v1.5.2PL0 Copyright (c) Steve Scherf et al.
# Submitted via: ExactAudioCopy v0.99pb1
#
DISCID=a109dd0c
DTITLE=Janiva Magness - The Devil Is An Angel Too
DYEAR=2010
DGENRE=
TTITLE0=The Devil Is An Angel Too
TTITLE1=I'm Gonna Tear Your Playhouse Down
TTITLE2=Slipped, Tripped and Fell In Love
TTITLE3=I'm Feelin' Good
TTITLE4=Weeds Like Us
TTITLE5=Walkin' In The Sun
TTITLE6=End of Our Road
TTITLE7=Save Me
TTITLE8=I Want To Do Everything For You
TTITLE9=Your Love Made A U-Turn
TTITLE10=Homewrecker
TTITLE11=Turn Your Heart In My Direction
EXTD=
EXTT0=
EXTT1=
EXTT2=
EXTT3=
EXTT4=
EXTT5=
EXTT6=
EXTT7=
EXTT8=
EXTT9=
EXTT10=
EXTT11=
PLAYORDER=
